<svg width="1979" height="1122" viewBox="0 0 1979 1122" fill="none" xmlns="http://www.w3.org/2000/svg">
<path fill-rule="evenodd" clip-rule="evenodd" d="M1736.34 75.4379C1736.34 40.9772 1708.35 13 1673.89 13H240.117C205.65 13 177.668 40.9772 177.668 75.4379V1029.8C177.668 1064.26 205.65 1092.24 240.117 1092.24H1673.89C1708.35 1092.24 1736.34 1064.26 1736.34 1029.8V75.4379Z" fill="#B4B4B4"/>
<path fill-rule="evenodd" clip-rule="evenodd" d="M1731.53 75.5551C1731.53 43.6797 1705.64 17.8011 1673.76 17.8011H240.233C208.351 17.8011 182.467 43.6797 182.467 75.5551V1028.72C182.467 1060.6 208.351 1086.48 240.233 1086.48H1673.76C1705.64 1086.48 1731.53 1060.6 1731.53 1028.72V75.5551Z" fill="#001028"/>
<path fill-rule="evenodd" clip-rule="evenodd" d="M1729.06 900.905C1729.42 902.682 1729.61 904.521 1729.61 906.405V1002.48C1729.61 1017.56 1717.37 1029.8 1702.28 1029.8H211.717C196.634 1029.8 184.388 1017.56 184.388 1002.48V906.405C184.388 904.521 184.579 902.682 184.943 900.905C184.577 898.294 184.388 895.626 184.388 892.915V76.9138C184.388 45.3479 210.02 19.7209 241.591 19.7209H1672.41C1703.98 19.7209 1729.61 45.3479 1729.61 76.9138V892.915C1729.61 895.626 1729.42 898.294 1729.06 900.905Z" fill="#001028"/>
<path fill-rule="evenodd" clip-rule="evenodd" d="M1724.71 899.83C1724.78 900.508 1724.81 901.194 1724.81 901.888V1002.19C1724.81 1014.78 1714.58 1025 1702 1025H212.001C199.412 1025 189.19 1014.78 189.19 1002.19V901.888C189.19 901.194 189.221 900.508 189.282 899.83C189.221 898.788 189.19 897.737 189.19 896.679V77.9511C189.19 48.4634 213.135 24.5227 242.628 24.5227H1671.37C1700.87 24.5227 1724.81 48.4634 1724.81 77.9511V896.679C1724.81 897.737 1724.78 898.788 1724.72 899.83H1724.71Z" fill="#001028"/>
<path fill-rule="evenodd" clip-rule="evenodd" d="M1679.33 88.8474C1679.33 87.6073 1678.32 86.6008 1677.08 86.6008H236.92C235.68 86.6008 234.673 87.6073 234.673 88.8474V990.189C234.673 991.429 235.68 992.437 236.92 992.437H1677.08C1678.32 992.437 1679.33 991.429 1679.33 990.189V88.8474Z" fill="#001028"/>
<path d="M1678.2 88.8541H235.799V990.181H1678.2V88.8541Z" fill="#001028"/>
<path fill-rule="evenodd" clip-rule="evenodd" d="M957.004 63.6688C961.982 63.6688 966.019 59.6331 966.019 54.6555C966.019 49.6772 961.982 45.6423 957.004 45.6423C952.025 45.6423 947.989 49.6772 947.989 54.6555C947.989 59.6331 952.025 63.6688 957.004 63.6688Z" fill="#001028"/>
<path fill-rule="evenodd" clip-rule="evenodd" d="M1543.3 1036.55H370.705L367.824 1057.67H1546.18L1543.3 1036.55Z" fill="#001028"/>
<path fill-rule="evenodd" clip-rule="evenodd" d="M100.838 1122C64.6422 1122 14.1528 1107.69 0 1092.24H1914C1899.85 1107.69 1849.36 1122 1813.16 1122H100.835H100.838Z" fill="#B4B4B4"/>
<path fill-rule="evenodd" clip-rule="evenodd" d="M1914 1092.24C1912.82 1093.53 1911.38 1094.81 1909.72 1096.08H4.27838C2.61811 1094.81 1.18247 1093.53 0 1092.24V1091.28V1055.75H1914V1092.24Z" fill="#B4B4B4"/>
<path fill-rule="evenodd" clip-rule="evenodd" d="M824.468 1079.76C814.569 1079.76 804.3 1067.33 804.3 1055.75H1109.7C1109.7 1067.33 1099.43 1079.76 1089.53 1079.76H824.468Z" fill="#B4B4B4"/>
<g filter="url(#filter0_d)">
<rect x="242" y="67" width="1444" height="946" fill="#EEEEEE"/>
</g>
<g filter="url(#filter1_d)">
<path d="M565 67H1366V1013H565V67Z" fill="#F7F9FA"/>
</g>
<rect x="747.5" y="577.5" width="199" height="39" fill="#F7F9FA" stroke="#2F363C"/>
<path d="M794.828 600.203C794.828 599.573 794.607 599.076 794.164 598.711C793.721 598.341 792.911 597.992 791.734 597.664C790.557 597.331 789.698 596.969 789.156 596.578C788.385 596.026 788 595.302 788 594.406C788 593.536 788.357 592.831 789.07 592.289C789.789 591.742 790.706 591.469 791.82 591.469C792.576 591.469 793.25 591.615 793.844 591.906C794.443 592.198 794.906 592.604 795.234 593.125C795.562 593.646 795.727 594.227 795.727 594.867H794.758C794.758 594.091 794.492 593.469 793.961 593C793.43 592.526 792.716 592.289 791.82 592.289C790.951 592.289 790.258 592.484 789.742 592.875C789.227 593.26 788.969 593.766 788.969 594.391C788.969 594.969 789.201 595.44 789.664 595.805C790.128 596.169 790.87 596.492 791.891 596.773C792.911 597.049 793.685 597.339 794.211 597.641C794.737 597.938 795.133 598.294 795.398 598.711C795.664 599.128 795.797 599.62 795.797 600.188C795.797 601.083 795.438 601.802 794.719 602.344C794.005 602.885 793.062 603.156 791.891 603.156C791.089 603.156 790.352 603.013 789.68 602.727C789.013 602.44 788.505 602.039 788.156 601.523C787.812 601.008 787.641 600.417 787.641 599.75H788.602C788.602 600.552 788.901 601.185 789.5 601.648C790.099 602.112 790.896 602.344 791.891 602.344C792.776 602.344 793.487 602.148 794.023 601.758C794.56 601.367 794.828 600.849 794.828 600.203ZM797.141 598.648C797.141 597.836 797.297 597.104 797.609 596.453C797.927 595.802 798.372 595.297 798.945 594.938C799.523 594.573 800.177 594.391 800.906 594.391C802.031 594.391 802.943 594.786 803.641 595.578C804.339 596.365 804.688 597.409 804.688 598.711V598.906C804.688 599.724 804.529 600.461 804.211 601.117C803.898 601.768 803.456 602.271 802.883 602.625C802.31 602.979 801.656 603.156 800.922 603.156C799.802 603.156 798.891 602.763 798.188 601.977C797.49 601.185 797.141 600.138 797.141 598.836V598.648ZM798.078 598.906C798.078 599.917 798.339 600.747 798.859 601.398C799.385 602.044 800.073 602.367 800.922 602.367C801.766 602.367 802.448 602.044 802.969 601.398C803.495 600.747 803.758 599.891 803.758 598.828V598.648C803.758 598.003 803.638 597.411 803.398 596.875C803.159 596.339 802.823 595.924 802.391 595.633C801.958 595.336 801.464 595.188 800.906 595.188C800.073 595.188 799.393 595.516 798.867 596.172C798.341 596.823 798.078 597.677 798.078 598.734V598.906ZM807.672 603H806.734V591H807.672V603ZM811.266 603H810.328V594.547H811.266V603ZM810.164 592.102C810.164 591.924 810.221 591.776 810.336 591.656C810.451 591.531 810.607 591.469 810.805 591.469C811.003 591.469 811.159 591.531 811.273 591.656C811.393 591.776 811.453 591.924 811.453 592.102C811.453 592.279 811.393 592.427 811.273 592.547C811.159 592.667 811.003 592.727 810.805 592.727C810.607 592.727 810.451 592.667 810.336 592.547C810.221 592.427 810.164 592.279 810.164 592.102ZM813.438 598.695C813.438 597.383 813.729 596.339 814.312 595.562C814.901 594.781 815.698 594.391 816.703 594.391C817.844 594.391 818.714 594.841 819.312 595.742V591H820.242V603H819.367L819.328 601.875C818.729 602.729 817.849 603.156 816.688 603.156C815.714 603.156 814.927 602.766 814.328 601.984C813.734 601.198 813.438 600.138 813.438 598.805V598.695ZM814.383 598.859C814.383 599.938 814.599 600.789 815.031 601.414C815.464 602.034 816.073 602.344 816.859 602.344C818.01 602.344 818.828 601.836 819.312 600.82V596.852C818.828 595.753 818.016 595.203 816.875 595.203C816.089 595.203 815.477 595.513 815.039 596.133C814.602 596.747 814.383 597.656 814.383 598.859ZM834.867 599.453C834.737 600.651 834.307 601.568 833.578 602.203C832.854 602.839 831.888 603.156 830.68 603.156C829.836 603.156 829.089 602.945 828.438 602.523C827.792 602.102 827.292 601.505 826.938 600.734C826.583 599.958 826.404 599.073 826.398 598.078V596.602C826.398 595.591 826.576 594.695 826.93 593.914C827.284 593.133 827.792 592.531 828.453 592.109C829.12 591.682 829.885 591.469 830.75 591.469C831.969 591.469 832.93 591.799 833.633 592.461C834.341 593.117 834.753 594.026 834.867 595.188H833.898C833.659 593.255 832.609 592.289 830.75 592.289C829.719 592.289 828.896 592.674 828.281 593.445C827.672 594.216 827.367 595.281 827.367 596.641V598.031C827.367 599.344 827.664 600.391 828.258 601.172C828.857 601.953 829.664 602.344 830.68 602.344C831.685 602.344 832.443 602.104 832.953 601.625C833.464 601.141 833.779 600.417 833.898 599.453H834.867ZM836.469 598.648C836.469 597.836 836.625 597.104 836.938 596.453C837.255 595.802 837.701 595.297 838.273 594.938C838.852 594.573 839.505 594.391 840.234 594.391C841.359 594.391 842.271 594.786 842.969 595.578C843.667 596.365 844.016 597.409 844.016 598.711V598.906C844.016 599.724 843.857 600.461 843.539 601.117C843.227 601.768 842.784 602.271 842.211 602.625C841.638 602.979 840.984 603.156 840.25 603.156C839.13 603.156 838.219 602.763 837.516 601.977C836.818 601.185 836.469 600.138 836.469 598.836V598.648ZM837.406 598.906C837.406 599.917 837.667 600.747 838.188 601.398C838.714 602.044 839.401 602.367 840.25 602.367C841.094 602.367 841.776 602.044 842.297 601.398C842.823 600.747 843.086 599.891 843.086 598.828V598.648C843.086 598.003 842.966 597.411 842.727 596.875C842.487 596.339 842.151 595.924 841.719 595.633C841.286 595.336 840.792 595.188 840.234 595.188C839.401 595.188 838.721 595.516 838.195 596.172C837.669 596.823 837.406 597.677 837.406 598.734V598.906ZM846.805 594.547L846.836 595.922C847.148 595.411 847.539 595.029 848.008 594.773C848.477 594.518 848.997 594.391 849.57 594.391C850.904 594.391 851.75 594.938 852.109 596.031C852.411 595.505 852.815 595.102 853.32 594.82C853.826 594.534 854.383 594.391 854.992 594.391C856.805 594.391 857.729 595.38 857.766 597.359V603H856.828V597.43C856.823 596.674 856.659 596.115 856.336 595.75C856.018 595.385 855.497 595.203 854.773 595.203C854.102 595.214 853.534 595.432 853.07 595.859C852.607 596.281 852.349 596.797 852.297 597.406V603H851.359V597.359C851.354 596.635 851.182 596.096 850.844 595.742C850.51 595.383 849.995 595.203 849.297 595.203C848.708 595.203 848.203 595.372 847.781 595.711C847.359 596.044 847.047 596.542 846.844 597.203V603H845.906V594.547H846.805ZM860.992 594.547L861.023 595.922C861.336 595.411 861.727 595.029 862.195 594.773C862.664 594.518 863.185 594.391 863.758 594.391C865.091 594.391 865.938 594.938 866.297 596.031C866.599 595.505 867.003 595.102 867.508 594.82C868.013 594.534 868.57 594.391 869.18 594.391C870.992 594.391 871.917 595.38 871.953 597.359V603H871.016V597.43C871.01 596.674 870.846 596.115 870.523 595.75C870.206 595.385 869.685 595.203 868.961 595.203C868.289 595.214 867.721 595.432 867.258 595.859C866.794 596.281 866.536 596.797 866.484 597.406V603H865.547V597.359C865.542 596.635 865.37 596.096 865.031 595.742C864.698 595.383 864.182 595.203 863.484 595.203C862.896 595.203 862.391 595.372 861.969 595.711C861.547 596.044 861.234 596.542 861.031 597.203V603H860.094V594.547H860.992ZM879.766 601.93C879.203 602.747 878.305 603.156 877.07 603.156C876.169 603.156 875.484 602.896 875.016 602.375C874.547 601.849 874.307 601.073 874.297 600.047V594.547H875.227V599.93C875.227 601.539 875.878 602.344 877.18 602.344C878.534 602.344 879.391 601.784 879.75 600.664V594.547H880.688V603H879.781L879.766 601.93ZM884.016 594.547L884.047 595.992C884.365 595.471 884.76 595.076 885.234 594.805C885.708 594.529 886.232 594.391 886.805 594.391C887.711 594.391 888.385 594.646 888.828 595.156C889.271 595.667 889.495 596.432 889.5 597.453V603H888.57V597.445C888.565 596.69 888.404 596.128 888.086 595.758C887.773 595.388 887.271 595.203 886.578 595.203C886 595.203 885.487 595.385 885.039 595.75C884.596 596.109 884.268 596.596 884.055 597.211V603H883.125V594.547H884.016ZM892.969 603H892.031V594.547H892.969V603ZM891.867 592.102C891.867 591.924 891.924 591.776 892.039 591.656C892.154 591.531 892.31 591.469 892.508 591.469C892.706 591.469 892.862 591.531 892.977 591.656C893.096 591.776 893.156 591.924 893.156 592.102C893.156 592.279 893.096 592.427 892.977 592.547C892.862 592.667 892.706 592.727 892.508 592.727C892.31 592.727 892.154 592.667 892.039 592.547C891.924 592.427 891.867 592.279 891.867 592.102ZM896.969 592.383V594.547H898.719V595.312H896.969V600.945C896.969 601.414 897.052 601.763 897.219 601.992C897.391 602.221 897.674 602.336 898.07 602.336C898.227 602.336 898.479 602.31 898.828 602.258L898.867 603.023C898.622 603.112 898.289 603.156 897.867 603.156C897.227 603.156 896.76 602.971 896.469 602.602C896.177 602.227 896.031 601.677 896.031 600.953V595.312H894.477V594.547H896.031V592.383H896.969ZM903.336 601.656L905.805 594.547H906.812L903.203 604.438L903.016 604.875C902.552 605.901 901.836 606.414 900.867 606.414C900.643 606.414 900.404 606.378 900.148 606.305L900.141 605.531L900.625 605.578C901.083 605.578 901.453 605.464 901.734 605.234C902.021 605.01 902.263 604.622 902.461 604.07L902.875 602.93L899.688 594.547H900.711L903.336 601.656Z" fill="#2F363C"/>
<rect x="967.5" y="577.5" width="199" height="39" stroke="#2F363C"/>
<path d="M1024.35 603H1023.39V591.625H1024.35V603ZM1028.12 594.547L1028.15 595.992C1028.47 595.471 1028.86 595.076 1029.34 594.805C1029.81 594.529 1030.33 594.391 1030.91 594.391C1031.81 594.391 1032.49 594.646 1032.93 595.156C1033.37 595.667 1033.6 596.432 1033.6 597.453V603H1032.67V597.445C1032.67 596.69 1032.51 596.128 1032.19 595.758C1031.88 595.388 1031.37 595.203 1030.68 595.203C1030.1 595.203 1029.59 595.385 1029.14 595.75C1028.7 596.109 1028.37 596.596 1028.16 597.211V603H1027.23V594.547H1028.12ZM1039.93 595.344C1039.73 595.307 1039.52 595.289 1039.3 595.289C1038.71 595.289 1038.22 595.453 1037.81 595.781C1037.41 596.104 1037.12 596.576 1036.95 597.195V603H1036.02V594.547H1036.94L1036.95 595.891C1037.45 594.891 1038.24 594.391 1039.34 594.391C1039.6 594.391 1039.8 594.424 1039.95 594.492L1039.93 595.344ZM1046.85 601.93C1046.29 602.747 1045.39 603.156 1044.16 603.156C1043.26 603.156 1042.57 602.896 1042.1 602.375C1041.63 601.849 1041.39 601.073 1041.38 600.047V594.547H1042.31V599.93C1042.31 601.539 1042.96 602.344 1044.27 602.344C1045.62 602.344 1046.48 601.784 1046.84 600.664V594.547H1047.77V603H1046.87L1046.85 601.93ZM1057.01 598.859C1057.01 600.177 1056.72 601.224 1056.13 602C1055.55 602.771 1054.77 603.156 1053.79 603.156C1052.63 603.156 1051.75 602.75 1051.13 601.938V606.25H1050.2V594.547H1051.07L1051.12 595.742C1051.73 594.841 1052.61 594.391 1053.77 594.391C1054.78 594.391 1055.57 594.773 1056.14 595.539C1056.72 596.305 1057.01 597.367 1057.01 598.727V598.859ZM1056.07 598.695C1056.07 597.617 1055.85 596.766 1055.41 596.141C1054.96 595.516 1054.35 595.203 1053.55 595.203C1052.98 595.203 1052.49 595.341 1052.08 595.617C1051.67 595.893 1051.35 596.294 1051.13 596.82V600.875C1051.36 601.359 1051.68 601.729 1052.09 601.984C1052.51 602.24 1053 602.367 1053.57 602.367C1054.36 602.367 1054.97 602.055 1055.41 601.43C1055.85 600.799 1056.07 599.888 1056.07 598.695ZM1060.54 592.383V594.547H1062.29V595.312H1060.54V600.945C1060.54 601.414 1060.62 601.763 1060.79 601.992C1060.96 602.221 1061.24 602.336 1061.64 602.336C1061.8 602.336 1062.05 602.31 1062.4 602.258L1062.44 603.023C1062.19 603.112 1061.86 603.156 1061.44 603.156C1060.8 603.156 1060.33 602.971 1060.04 602.602C1059.75 602.227 1059.6 601.677 1059.6 600.953V595.312H1058.05V594.547H1059.6V592.383H1060.54ZM1068.34 603V591.625H1071.7C1072.91 591.625 1073.84 591.878 1074.47 592.383C1075.1 592.883 1075.41 593.622 1075.41 594.602C1075.41 595.19 1075.25 595.703 1074.93 596.141C1074.61 596.573 1074.17 596.883 1073.62 597.07C1074.28 597.216 1074.81 597.542 1075.21 598.047C1075.62 598.552 1075.82 599.135 1075.82 599.797C1075.82 600.802 1075.49 601.589 1074.84 602.156C1074.2 602.719 1073.3 603 1072.14 603H1068.34ZM1069.3 597.531V602.188H1072.18C1073 602.188 1073.65 601.979 1074.13 601.562C1074.62 601.141 1074.86 600.557 1074.86 599.812C1074.86 599.109 1074.63 598.555 1074.16 598.148C1073.71 597.737 1073.07 597.531 1072.26 597.531H1069.3ZM1069.3 596.727H1071.92C1072.72 596.711 1073.34 596.523 1073.78 596.164C1074.22 595.799 1074.45 595.271 1074.45 594.578C1074.45 593.849 1074.22 593.312 1073.76 592.969C1073.3 592.62 1072.62 592.445 1071.7 592.445H1069.3V596.727ZM1081.84 595.344C1081.64 595.307 1081.43 595.289 1081.2 595.289C1080.62 595.289 1080.12 595.453 1079.72 595.781C1079.32 596.104 1079.03 596.576 1078.86 597.195V603H1077.93V594.547H1078.84L1078.86 595.891C1079.35 594.891 1080.15 594.391 1081.24 594.391C1081.5 594.391 1081.71 594.424 1081.86 594.492L1081.84 595.344ZM1082.65 598.648C1082.65 597.836 1082.8 597.104 1083.12 596.453C1083.43 595.802 1083.88 595.297 1084.45 594.938C1085.03 594.573 1085.68 594.391 1086.41 594.391C1087.54 594.391 1088.45 594.786 1089.15 595.578C1089.85 596.365 1090.2 597.409 1090.2 598.711V598.906C1090.2 599.724 1090.04 600.461 1089.72 601.117C1089.41 601.768 1088.96 602.271 1088.39 602.625C1087.82 602.979 1087.16 603.156 1086.43 603.156C1085.31 603.156 1084.4 602.763 1083.7 601.977C1083 601.185 1082.65 600.138 1082.65 598.836V598.648ZM1083.59 598.906C1083.59 599.917 1083.85 600.747 1084.37 601.398C1084.89 602.044 1085.58 602.367 1086.43 602.367C1087.27 602.367 1087.96 602.044 1088.48 601.398C1089 600.747 1089.27 599.891 1089.27 598.828V598.648C1089.27 598.003 1089.15 597.411 1088.91 596.875C1088.67 596.339 1088.33 595.924 1087.9 595.633C1087.47 595.336 1086.97 595.188 1086.41 595.188C1085.58 595.188 1084.9 595.516 1084.38 596.172C1083.85 596.823 1083.59 597.677 1083.59 598.734V598.906ZM1094.14 598.742L1093.07 599.773V603H1092.13V591H1093.07V598.68L1093.95 597.727L1097.19 594.547H1098.37L1094.78 598.109L1098.68 603H1097.56L1094.14 598.742ZM1103.09 603.156C1102.38 603.156 1101.72 602.979 1101.14 602.625C1100.56 602.271 1100.11 601.779 1099.79 601.148C1099.47 600.513 1099.3 599.802 1099.3 599.016V598.68C1099.3 597.867 1099.46 597.135 1099.77 596.484C1100.09 595.833 1100.53 595.323 1101.09 594.953C1101.66 594.578 1102.27 594.391 1102.92 594.391C1103.95 594.391 1104.76 594.742 1105.36 595.445C1105.96 596.143 1106.27 597.099 1106.27 598.312V598.836H1100.23V599.016C1100.23 599.974 1100.51 600.773 1101.05 601.414C1101.61 602.049 1102.3 602.367 1103.13 602.367C1103.63 602.367 1104.07 602.276 1104.45 602.094C1104.84 601.911 1105.19 601.62 1105.5 601.219L1106.09 601.664C1105.4 602.659 1104.4 603.156 1103.09 603.156ZM1102.92 595.188C1102.22 595.188 1101.62 595.445 1101.14 595.961C1100.66 596.477 1100.37 597.169 1100.27 598.039H1105.34V597.938C1105.31 597.125 1105.08 596.464 1104.64 595.953C1104.2 595.443 1103.63 595.188 1102.92 595.188ZM1111.99 595.344C1111.79 595.307 1111.58 595.289 1111.36 595.289C1110.78 595.289 1110.28 595.453 1109.88 595.781C1109.47 596.104 1109.19 596.576 1109.02 597.195V603H1108.09V594.547H1109L1109.02 595.891C1109.51 594.891 1110.3 594.391 1111.4 594.391C1111.66 594.391 1111.86 594.424 1112.02 594.492L1111.99 595.344Z" fill="#2F363C"/>
<path d="M838.621 520.02C838.328 522.715 837.361 524.777 835.721 526.207C834.092 527.637 831.918 528.352 829.199 528.352C827.301 528.352 825.619 527.877 824.154 526.928C822.701 525.979 821.576 524.637 820.779 522.902C819.982 521.156 819.578 519.164 819.566 516.926V513.604C819.566 511.33 819.965 509.314 820.762 507.557C821.559 505.799 822.701 504.445 824.189 503.496C825.689 502.535 827.412 502.055 829.357 502.055C832.1 502.055 834.262 502.799 835.844 504.287C837.438 505.764 838.363 507.809 838.621 510.422H836.441C835.902 506.074 833.541 503.9 829.357 503.9C827.037 503.9 825.186 504.768 823.803 506.502C822.432 508.236 821.746 510.633 821.746 513.691V516.82C821.746 519.773 822.414 522.129 823.75 523.887C825.098 525.645 826.914 526.523 829.199 526.523C831.461 526.523 833.166 525.984 834.314 524.906C835.463 523.816 836.172 522.188 836.441 520.02H838.621ZM842.225 518.209C842.225 516.381 842.576 514.734 843.279 513.27C843.994 511.805 844.996 510.668 846.285 509.859C847.586 509.039 849.057 508.629 850.697 508.629C853.229 508.629 855.279 509.52 856.85 511.301C858.42 513.07 859.205 515.42 859.205 518.35V518.789C859.205 520.629 858.848 522.287 858.133 523.764C857.43 525.229 856.434 526.359 855.145 527.156C853.855 527.953 852.385 528.352 850.732 528.352C848.213 528.352 846.162 527.467 844.58 525.697C843.01 523.916 842.225 521.561 842.225 518.631V518.209ZM844.334 518.789C844.334 521.062 844.92 522.932 846.092 524.396C847.275 525.85 848.822 526.576 850.732 526.576C852.631 526.576 854.166 525.85 855.338 524.396C856.521 522.932 857.113 521.004 857.113 518.613V518.209C857.113 516.756 856.844 515.426 856.305 514.219C855.766 513.012 855.01 512.08 854.037 511.424C853.064 510.756 851.951 510.422 850.697 510.422C848.822 510.422 847.293 511.16 846.109 512.637C844.926 514.102 844.334 516.023 844.334 518.402V518.789ZM865.568 508.98L865.639 512.232C866.354 511.061 867.244 510.17 868.311 509.561C869.377 508.939 870.555 508.629 871.844 508.629C873.883 508.629 875.4 509.203 876.396 510.352C877.393 511.5 877.896 513.223 877.908 515.52V528H875.816V515.502C875.805 513.803 875.441 512.537 874.727 511.705C874.023 510.873 872.893 510.457 871.334 510.457C870.033 510.457 868.879 510.867 867.871 511.688C866.875 512.496 866.137 513.592 865.656 514.975V528H863.564V508.98H865.568ZM885.361 508.98L885.432 512.232C886.146 511.061 887.037 510.17 888.104 509.561C889.17 508.939 890.348 508.629 891.637 508.629C893.676 508.629 895.193 509.203 896.189 510.352C897.186 511.5 897.689 513.223 897.701 515.52V528H895.609V515.502C895.598 513.803 895.234 512.537 894.52 511.705C893.816 510.873 892.686 510.457 891.127 510.457C889.826 510.457 888.672 510.867 887.664 511.688C886.668 512.496 885.93 513.592 885.449 514.975V528H883.357V508.98H885.361ZM910.516 528.352C908.898 528.352 907.434 527.953 906.121 527.156C904.82 526.359 903.807 525.252 903.08 523.834C902.354 522.404 901.99 520.805 901.99 519.035V518.279C901.99 516.451 902.342 514.805 903.045 513.34C903.76 511.875 904.75 510.727 906.016 509.895C907.281 509.051 908.652 508.629 910.129 508.629C912.438 508.629 914.266 509.42 915.613 511.002C916.973 512.572 917.652 514.723 917.652 517.453V518.631H904.082V519.035C904.082 521.191 904.697 522.99 905.928 524.432C907.17 525.861 908.729 526.576 910.604 526.576C911.729 526.576 912.719 526.371 913.574 525.961C914.441 525.551 915.227 524.895 915.93 523.992L917.248 524.994C915.701 527.232 913.457 528.352 910.516 528.352ZM910.129 510.422C908.547 510.422 907.211 511.002 906.121 512.162C905.043 513.322 904.387 514.881 904.152 516.838H915.561V516.609C915.502 514.781 914.98 513.293 913.996 512.145C913.012 510.996 911.723 510.422 910.129 510.422ZM928.779 526.576C930.244 526.576 931.469 526.166 932.453 525.346C933.449 524.514 933.988 523.441 934.07 522.129H936.092C936.033 523.289 935.67 524.35 935.002 525.311C934.334 526.26 933.443 527.004 932.33 527.543C931.229 528.082 930.045 528.352 928.779 528.352C926.283 528.352 924.303 527.484 922.838 525.75C921.385 524.016 920.658 521.684 920.658 518.754V518.121C920.658 516.246 920.986 514.588 921.643 513.146C922.299 511.705 923.236 510.592 924.455 509.807C925.686 509.021 927.121 508.629 928.762 508.629C930.848 508.629 932.564 509.25 933.912 510.492C935.271 511.734 935.998 513.369 936.092 515.396H934.07C933.977 513.908 933.438 512.707 932.453 511.793C931.48 510.879 930.25 510.422 928.762 510.422C926.863 510.422 925.387 511.107 924.332 512.479C923.289 513.85 922.768 515.771 922.768 518.244V518.859C922.768 521.285 923.289 523.178 924.332 524.537C925.387 525.896 926.869 526.576 928.779 526.576ZM943.58 504.111V508.98H947.518V510.703H943.58V523.377C943.58 524.432 943.768 525.217 944.143 525.732C944.529 526.248 945.168 526.506 946.059 526.506C946.41 526.506 946.979 526.447 947.764 526.33L947.852 528.053C947.301 528.252 946.551 528.352 945.602 528.352C944.16 528.352 943.111 527.936 942.455 527.104C941.799 526.26 941.471 525.023 941.471 523.395V510.703H937.973V508.98H941.471V504.111H943.58ZM966.66 524.977L972.215 508.98H974.482L966.361 531.234L965.939 532.219C964.896 534.527 963.285 535.682 961.105 535.682C960.602 535.682 960.062 535.6 959.488 535.436L959.471 533.695L960.561 533.801C961.592 533.801 962.424 533.543 963.057 533.027C963.701 532.523 964.246 531.65 964.691 530.408L965.623 527.842L958.451 508.98H960.754L966.66 524.977ZM976.311 518.209C976.311 516.381 976.662 514.734 977.365 513.27C978.08 511.805 979.082 510.668 980.371 509.859C981.672 509.039 983.143 508.629 984.783 508.629C987.314 508.629 989.365 509.52 990.936 511.301C992.506 513.07 993.291 515.42 993.291 518.35V518.789C993.291 520.629 992.934 522.287 992.219 523.764C991.516 525.229 990.52 526.359 989.23 527.156C987.941 527.953 986.471 528.352 984.818 528.352C982.299 528.352 980.248 527.467 978.666 525.697C977.096 523.916 976.311 521.561 976.311 518.631V518.209ZM978.42 518.789C978.42 521.062 979.006 522.932 980.178 524.396C981.361 525.85 982.908 526.576 984.818 526.576C986.717 526.576 988.252 525.85 989.424 524.396C990.607 522.932 991.199 521.004 991.199 518.613V518.209C991.199 516.756 990.93 515.426 990.391 514.219C989.852 513.012 989.096 512.08 988.123 511.424C987.15 510.756 986.037 510.422 984.783 510.422C982.908 510.422 981.379 511.16 980.195 512.637C979.012 514.102 978.42 516.023 978.42 518.402V518.789ZM1009.88 525.592C1008.62 527.432 1006.6 528.352 1003.82 528.352C1001.79 528.352 1000.25 527.766 999.197 526.594C998.143 525.41 997.604 523.664 997.58 521.355V508.98H999.672V521.092C999.672 524.713 1001.14 526.523 1004.07 526.523C1007.11 526.523 1009.04 525.264 1009.85 522.744V508.98H1011.96V528H1009.92L1009.88 525.592ZM1026.23 510.773C1025.79 510.691 1025.31 510.65 1024.81 510.65C1023.5 510.65 1022.38 511.02 1021.47 511.758C1020.57 512.484 1019.92 513.545 1019.54 514.939V528H1017.44V508.98H1019.5L1019.54 512.004C1020.65 509.754 1022.44 508.629 1024.9 508.629C1025.48 508.629 1025.95 508.705 1026.29 508.857L1026.23 510.773ZM1053.62 518.684C1053.62 521.648 1052.96 524.004 1051.65 525.75C1050.34 527.484 1048.58 528.352 1046.38 528.352C1043.78 528.352 1041.78 527.438 1040.4 525.609V535.312H1038.31V508.98H1040.26L1040.37 511.67C1041.74 509.643 1043.72 508.629 1046.32 508.629C1048.6 508.629 1050.38 509.49 1051.67 511.213C1052.97 512.936 1053.62 515.326 1053.62 518.385V518.684ZM1051.51 518.314C1051.51 515.889 1051.01 513.973 1050.02 512.566C1049.02 511.16 1047.63 510.457 1045.85 510.457C1044.56 510.457 1043.45 510.768 1042.53 511.389C1041.6 512.01 1040.89 512.912 1040.4 514.096V523.219C1040.9 524.309 1041.62 525.141 1042.56 525.715C1043.5 526.289 1044.61 526.576 1045.88 526.576C1047.65 526.576 1049.03 525.873 1050.02 524.467C1051.01 523.049 1051.51 520.998 1051.51 518.314ZM1057.13 518.209C1057.13 516.381 1057.49 514.734 1058.19 513.27C1058.9 511.805 1059.91 510.668 1061.2 509.859C1062.5 509.039 1063.97 508.629 1065.61 508.629C1068.14 508.629 1070.19 509.52 1071.76 511.301C1073.33 513.07 1074.12 515.42 1074.12 518.35V518.789C1074.12 520.629 1073.76 522.287 1073.04 523.764C1072.34 525.229 1071.34 526.359 1070.05 527.156C1068.77 527.953 1067.29 528.352 1065.64 528.352C1063.12 528.352 1061.07 527.467 1059.49 525.697C1057.92 523.916 1057.13 521.561 1057.13 518.631V518.209ZM1059.24 518.789C1059.24 521.062 1059.83 522.932 1061 524.396C1062.19 525.85 1063.73 526.576 1065.64 526.576C1067.54 526.576 1069.08 525.85 1070.25 524.396C1071.43 522.932 1072.02 521.004 1072.02 518.613V518.209C1072.02 516.756 1071.75 515.426 1071.21 514.219C1070.68 513.012 1069.92 512.08 1068.95 511.424C1067.97 510.756 1066.86 510.422 1065.61 510.422C1063.73 510.422 1062.2 511.16 1061.02 512.637C1059.84 514.102 1059.24 516.023 1059.24 518.402V518.789ZM1077.63 518.314C1077.63 515.361 1078.29 513.012 1079.6 511.266C1080.92 509.508 1082.72 508.629 1084.98 508.629C1087.54 508.629 1089.5 509.643 1090.85 511.67V501H1092.94V528H1090.97L1090.88 525.469C1089.54 527.391 1087.56 528.352 1084.94 528.352C1082.75 528.352 1080.98 527.473 1079.63 525.715C1078.3 523.945 1077.63 521.561 1077.63 518.561V518.314ZM1079.76 518.684C1079.76 521.109 1080.24 523.025 1081.22 524.432C1082.19 525.826 1083.56 526.523 1085.33 526.523C1087.92 526.523 1089.76 525.381 1090.85 523.096V514.166C1089.76 511.693 1087.93 510.457 1085.37 510.457C1083.6 510.457 1082.22 511.154 1081.23 512.549C1080.25 513.932 1079.76 515.977 1079.76 518.684Z" fill="#2F363C"/>
<circle cx="943.274" cy="321.863" r="6.86275" fill="#2F363C"/>
<ellipse cx="967.981" cy="349.314" rx="6.86275" ry="6.86274" fill="#2F363C"/>
<ellipse cx="992.686" cy="382.255" rx="6.86275" ry="6.86275" fill="#2F363C"/>
<ellipse cx="924.059" cy="357.549" rx="6.86274" ry="6.86274" fill="#2F363C"/>
<ellipse cx="893.863" cy="376.765" rx="6.86275" ry="6.86274" fill="#2F363C"/>
<circle cx="970.725" cy="448.137" r="6.86275" fill="#2F363C"/>
<circle cx="926.804" cy="412.451" r="6.86275" fill="#2F363C"/>
<circle cx="1020.14" cy="404.216" r="6.86275" fill="#2F363C"/>
<circle cx="1005.04" cy="350.686" r="10.9804" fill="#2F363C"/>
<ellipse cx="996.804" cy="422.059" rx="10.9804" ry="10.9804" fill="#2F363C"/>
<ellipse cx="933.667" cy="441.275" rx="10.9804" ry="10.9804" fill="#2F363C"/>
<ellipse cx="984.451" cy="341.078" rx="4.11764" ry="4.11765" fill="#2F363C"/>
<ellipse cx="973.471" cy="321.863" rx="4.11765" ry="4.11765" fill="#2F363C"/>
<ellipse cx="1022.88" cy="376.765" rx="4.11765" ry="4.11765" fill="#2F363C"/>
<ellipse cx="1003.67" cy="398.725" rx="4.11765" ry="4.11765" fill="#2F363C"/>
<ellipse cx="913.078" cy="387.745" rx="4.11765" ry="4.11765" fill="#2F363C"/>
<ellipse cx="976.216" cy="423.431" rx="4.11765" ry="4.11765" fill="#2F363C"/>
<ellipse cx="948.764" cy="428.922" rx="4.11764" ry="4.11765" fill="#2F363C"/>
<ellipse cx="899.353" cy="415.196" rx="4.11765" ry="4.11765" fill="#2F363C"/>
<ellipse cx="915.823" cy="428.922" rx="4.11765" ry="4.11765" fill="#2F363C"/>
<ellipse cx="921.314" cy="332.843" rx="4.11764" ry="4.11765" fill="#2F363C"/>
<ellipse cx="958.372" cy="331.471" rx="2.7451" ry="2.7451" fill="#2F363C"/>
<ellipse cx="958.372" cy="320.49" rx="2.7451" ry="2.7451" fill="#2F363C"/>
<ellipse cx="936.412" cy="336.961" rx="2.74509" ry="2.7451" fill="#2F363C"/>
<ellipse cx="972.098" cy="334.216" rx="2.74511" ry="2.7451" fill="#2F363C"/>
<ellipse cx="911.706" cy="345.196" rx="2.7451" ry="2.7451" fill="#2F363C"/>
<ellipse cx="933.667" cy="347.941" rx="2.7451" ry="2.7451" fill="#2F363C"/>
<ellipse cx="922.686" cy="345.196" rx="2.7451" ry="2.7451" fill="#2F363C"/>
<ellipse cx="911.706" cy="358.922" rx="2.7451" ry="2.7451" fill="#2F363C"/>
<ellipse cx="897.98" cy="353.431" rx="2.7451" ry="2.7451" fill="#2F363C"/>
<ellipse cx="903.47" cy="367.157" rx="2.7451" ry="2.7451" fill="#2F363C"/>
<circle cx="908.961" cy="378.137" r="2.7451" fill="#2F363C"/>
<ellipse cx="922.686" cy="375.392" rx="2.7451" ry="2.7451" fill="#2F363C"/>
<ellipse cx="892.49" cy="391.863" rx="2.7451" ry="2.74509" fill="#2F363C"/>
<ellipse cx="903.47" cy="397.353" rx="2.7451" ry="2.74511" fill="#2F363C"/>
<ellipse cx="919.941" cy="397.353" rx="2.7451" ry="2.74511" fill="#2F363C"/>
<ellipse cx="911.706" cy="411.078" rx="2.7451" ry="2.74509" fill="#2F363C"/>
<ellipse cx="906.216" cy="424.804" rx="2.7451" ry="2.7451" fill="#2F363C"/>
<ellipse cx="928.177" cy="424.804" rx="2.7451" ry="2.7451" fill="#2F363C"/>
<ellipse cx="939.157" cy="419.314" rx="2.7451" ry="2.7451" fill="#2F363C"/>
<ellipse cx="940.529" cy="426.177" rx="1.37255" ry="1.37255" fill="#2F363C"/>
<ellipse cx="915.824" cy="439.902" rx="1.37255" ry="1.37254" fill="#2F363C"/>
<circle cx="959.745" cy="453.627" r="1.37255" fill="#2F363C"/>
<circle cx="970.726" cy="428.922" r="1.37255" fill="#2F363C"/>
<circle cx="984.451" cy="445.392" r="1.37255" fill="#2F363C"/>
<circle cx="987.196" cy="434.412" r="1.37255" fill="#2F363C"/>
<ellipse cx="1009.16" cy="431.667" rx="1.37255" ry="1.37255" fill="#2F363C"/>
<circle cx="984.451" cy="409.706" r="1.37255" fill="#2F363C"/>
<ellipse cx="995.432" cy="406.961" rx="1.37255" ry="1.37255" fill="#2F363C"/>
<circle cx="1006.41" cy="409.706" r="1.37255" fill="#2F363C"/>
<ellipse cx="995.432" cy="393.235" rx="1.37255" ry="1.37255" fill="#2F363C"/>
<ellipse cx="1011.9" cy="395.98" rx="1.37254" ry="1.37255" fill="#2F363C"/>
<ellipse cx="1011.9" cy="376.765" rx="1.37254" ry="1.37255" fill="#2F363C"/>
<ellipse cx="989.941" cy="371.275" rx="1.37255" ry="1.37255" fill="#2F363C"/>
<ellipse cx="1020.14" cy="357.549" rx="1.37256" ry="1.37255" fill="#2F363C"/>
<ellipse cx="915.824" cy="417.941" rx="1.37255" ry="1.37255" fill="#2F363C"/>
<ellipse cx="913.078" cy="401.471" rx="1.37255" ry="1.37255" fill="#2F363C"/>
<ellipse cx="893.863" cy="404.216" rx="1.37255" ry="1.37255" fill="#2F363C"/>
<ellipse cx="924.059" cy="387.745" rx="1.37255" ry="1.37255" fill="#2F363C"/>
<ellipse cx="902.098" cy="387.745" rx="1.37255" ry="1.37255" fill="#2F363C"/>
<circle cx="913.078" cy="368.529" r="1.37255" fill="#2F363C"/>
<ellipse cx="893.863" cy="363.039" rx="1.37255" ry="1.37254" fill="#2F363C"/>
<ellipse cx="904.843" cy="354.804" rx="1.37255" ry="1.37255" fill="#2F363C"/>
<circle cx="904.843" cy="341.078" r="1.37255" fill="#2F363C"/>
<ellipse cx="929.549" cy="338.333" rx="1.37255" ry="1.37255" fill="#2F363C"/>
<circle cx="954.255" cy="349.314" r="1.37255" fill="#2F363C"/>
<ellipse cx="943.275" cy="349.314" rx="1.37255" ry="1.37255" fill="#2F363C"/>
<ellipse cx="948.765" cy="332.843" rx="1.37255" ry="1.37255" fill="#2F363C"/>
<ellipse cx="962.49" cy="338.333" rx="1.37255" ry="1.37255" fill="#2F363C"/>
<ellipse cx="965.235" cy="327.353" rx="1.37255" ry="1.37255" fill="#2F363C"/>
<ellipse cx="987.196" cy="324.608" rx="1.37255" ry="1.37255" fill="#2F363C"/>
<ellipse cx="1003.67" cy="335.588" rx="1.37255" ry="1.37255" fill="#2F363C"/>
<ellipse cx="981.706" cy="330.098" rx="1.37255" ry="1.37255" fill="#2F363C"/>
<circle cx="981.706" cy="360.294" r="1.37255" fill="#2F363C"/>
<circle cx="984.451" cy="349.314" r="1.37255" fill="#2F363C"/>
<ellipse cx="950.137" cy="449.51" rx="2.7451" ry="2.7451" fill="#2F363C"/>
<ellipse cx="955.627" cy="441.275" rx="2.7451" ry="2.74509" fill="#2F363C"/>
<circle cx="963.863" cy="435.784" r="2.7451" fill="#2F363C"/>
<circle cx="963.863" cy="424.804" r="2.7451" fill="#2F363C"/>
<ellipse cx="977.588" cy="435.784" rx="2.7451" ry="2.7451" fill="#2F363C"/>
<ellipse cx="928.177" cy="323.235" rx="2.7451" ry="2.7451" fill="#2F363C"/>
<ellipse cx="994.059" cy="441.275" rx="2.7451" ry="2.74509" fill="#2F363C"/>
<ellipse cx="988.569" cy="400.098" rx="2.7451" ry="2.7451" fill="#2F363C"/>
<ellipse cx="994.059" cy="331.471" rx="2.7451" ry="2.7451" fill="#2F363C"/>
<ellipse cx="950.137" cy="339.706" rx="2.7451" ry="2.7451" fill="#2F363C"/>
<circle cx="1002.29" cy="372.647" r="2.7451" fill="#2F363C"/>
<ellipse cx="991.314" cy="361.667" rx="2.7451" ry="2.7451" fill="#2F363C"/>
<ellipse cx="1016.02" cy="364.412" rx="2.74511" ry="2.74509" fill="#2F363C"/>
<ellipse cx="1007.78" cy="386.373" rx="2.7451" ry="2.74509" fill="#2F363C"/>
<ellipse cx="1018.76" cy="389.118" rx="2.7451" ry="2.74509" fill="#2F363C"/>
<ellipse cx="1013.27" cy="416.569" rx="2.74509" ry="2.7451" fill="#2F363C"/>
<g filter="url(#filter2_d)">
<path d="M565 67H1366V167H565V67Z" fill="#2F363C"/>
</g>
<path d="M669.82 117.93C668.534 117.56 667.596 117.107 667.008 116.57C666.424 116.029 666.133 115.362 666.133 114.57C666.133 113.674 666.49 112.935 667.203 112.352C667.922 111.763 668.854 111.469 670 111.469C670.781 111.469 671.477 111.62 672.086 111.922C672.701 112.224 673.174 112.641 673.508 113.172C673.846 113.703 674.016 114.284 674.016 114.914H672.508C672.508 114.227 672.289 113.688 671.852 113.297C671.414 112.901 670.797 112.703 670 112.703C669.26 112.703 668.682 112.867 668.266 113.195C667.854 113.518 667.648 113.969 667.648 114.547C667.648 115.01 667.844 115.404 668.234 115.727C668.63 116.044 669.299 116.336 670.242 116.602C671.19 116.867 671.93 117.161 672.461 117.484C672.997 117.802 673.393 118.174 673.648 118.602C673.909 119.029 674.039 119.531 674.039 120.109C674.039 121.031 673.68 121.771 672.961 122.328C672.242 122.88 671.281 123.156 670.078 123.156C669.297 123.156 668.568 123.008 667.891 122.711C667.214 122.409 666.69 121.997 666.32 121.477C665.956 120.956 665.773 120.365 665.773 119.703H667.281C667.281 120.391 667.534 120.935 668.039 121.336C668.549 121.732 669.229 121.93 670.078 121.93C670.87 121.93 671.477 121.768 671.898 121.445C672.32 121.122 672.531 120.682 672.531 120.125C672.531 119.568 672.336 119.138 671.945 118.836C671.555 118.529 670.846 118.227 669.82 117.93ZM679.25 123.156C678.104 123.156 677.172 122.781 676.453 122.031C675.734 121.276 675.375 120.268 675.375 119.008V118.742C675.375 117.904 675.534 117.156 675.852 116.5C676.174 115.839 676.622 115.323 677.195 114.953C677.773 114.578 678.398 114.391 679.07 114.391C680.169 114.391 681.023 114.753 681.633 115.477C682.242 116.201 682.547 117.237 682.547 118.586V119.188H676.82C676.841 120.021 677.083 120.695 677.547 121.211C678.016 121.721 678.609 121.977 679.328 121.977C679.839 121.977 680.271 121.872 680.625 121.664C680.979 121.456 681.289 121.18 681.555 120.836L682.438 121.523C681.729 122.612 680.667 123.156 679.25 123.156ZM679.07 115.578C678.487 115.578 677.997 115.792 677.602 116.219C677.206 116.641 676.961 117.234 676.867 118H681.102V117.891C681.06 117.156 680.862 116.589 680.508 116.188C680.154 115.781 679.674 115.578 679.07 115.578ZM685.586 114.547L685.625 115.484C686.245 114.755 687.081 114.391 688.133 114.391C689.315 114.391 690.12 114.844 690.547 115.75C690.828 115.344 691.193 115.016 691.641 114.766C692.094 114.516 692.628 114.391 693.242 114.391C695.096 114.391 696.039 115.372 696.07 117.336V123H694.625V117.422C694.625 116.818 694.487 116.367 694.211 116.07C693.935 115.768 693.471 115.617 692.82 115.617C692.284 115.617 691.839 115.779 691.484 116.102C691.13 116.419 690.924 116.849 690.867 117.391V123H689.414V117.461C689.414 116.232 688.812 115.617 687.609 115.617C686.661 115.617 686.013 116.021 685.664 116.828V123H684.219V114.547H685.586ZM706.852 119.391C706.711 120.594 706.266 121.523 705.516 122.18C704.771 122.831 703.779 123.156 702.539 123.156C701.195 123.156 700.117 122.674 699.305 121.711C698.497 120.747 698.094 119.458 698.094 117.844V116.75C698.094 115.693 698.281 114.763 698.656 113.961C699.036 113.159 699.573 112.544 700.266 112.117C700.958 111.685 701.76 111.469 702.672 111.469C703.88 111.469 704.849 111.807 705.578 112.484C706.307 113.156 706.732 114.089 706.852 115.281H705.344C705.214 114.375 704.93 113.719 704.492 113.312C704.06 112.906 703.453 112.703 702.672 112.703C701.714 112.703 700.961 113.057 700.414 113.766C699.872 114.474 699.602 115.482 699.602 116.789V117.891C699.602 119.125 699.859 120.107 700.375 120.836C700.891 121.565 701.612 121.93 702.539 121.93C703.372 121.93 704.01 121.742 704.453 121.367C704.901 120.987 705.198 120.328 705.344 119.391H706.852ZM708.297 118.695C708.297 117.867 708.458 117.122 708.781 116.461C709.109 115.799 709.562 115.289 710.141 114.93C710.724 114.57 711.388 114.391 712.133 114.391C713.284 114.391 714.214 114.789 714.922 115.586C715.635 116.383 715.992 117.443 715.992 118.766V118.867C715.992 119.69 715.833 120.43 715.516 121.086C715.203 121.737 714.753 122.245 714.164 122.609C713.581 122.974 712.909 123.156 712.148 123.156C711.003 123.156 710.073 122.758 709.359 121.961C708.651 121.164 708.297 120.109 708.297 118.797V118.695ZM709.75 118.867C709.75 119.805 709.966 120.557 710.398 121.125C710.836 121.693 711.419 121.977 712.148 121.977C712.883 121.977 713.466 121.69 713.898 121.117C714.331 120.539 714.547 119.732 714.547 118.695C714.547 117.768 714.326 117.018 713.883 116.445C713.445 115.867 712.862 115.578 712.133 115.578C711.419 115.578 710.844 115.862 710.406 116.43C709.969 116.997 709.75 117.81 709.75 118.867ZM719.164 114.547L719.203 115.484C719.823 114.755 720.659 114.391 721.711 114.391C722.893 114.391 723.698 114.844 724.125 115.75C724.406 115.344 724.771 115.016 725.219 114.766C725.672 114.516 726.206 114.391 726.82 114.391C728.674 114.391 729.617 115.372 729.648 117.336V123H728.203V117.422C728.203 116.818 728.065 116.367 727.789 116.07C727.513 115.768 727.049 115.617 726.398 115.617C725.862 115.617 725.417 115.779 725.062 116.102C724.708 116.419 724.503 116.849 724.445 117.391V123H722.992V117.461C722.992 116.232 722.391 115.617 721.188 115.617C720.24 115.617 719.591 116.021 719.242 116.828V123H717.797V114.547H719.164ZM736.031 123V111.625H739.242C740.232 111.625 741.107 111.844 741.867 112.281C742.628 112.719 743.214 113.341 743.625 114.148C744.042 114.956 744.253 115.883 744.258 116.93V117.656C744.258 118.729 744.049 119.669 743.633 120.477C743.221 121.284 742.63 121.904 741.859 122.336C741.094 122.768 740.201 122.99 739.18 123H736.031ZM737.531 112.859V121.773H739.109C740.266 121.773 741.164 121.414 741.805 120.695C742.451 119.977 742.773 118.953 742.773 117.625V116.961C742.773 115.669 742.469 114.667 741.859 113.953C741.255 113.234 740.396 112.87 739.281 112.859H737.531ZM749.812 123.156C748.667 123.156 747.734 122.781 747.016 122.031C746.297 121.276 745.938 120.268 745.938 119.008V118.742C745.938 117.904 746.096 117.156 746.414 116.5C746.737 115.839 747.185 115.323 747.758 114.953C748.336 114.578 748.961 114.391 749.633 114.391C750.732 114.391 751.586 114.753 752.195 115.477C752.805 116.201 753.109 117.237 753.109 118.586V119.188H747.383C747.404 120.021 747.646 120.695 748.109 121.211C748.578 121.721 749.172 121.977 749.891 121.977C750.401 121.977 750.833 121.872 751.188 121.664C751.542 121.456 751.852 121.18 752.117 120.836L753 121.523C752.292 122.612 751.229 123.156 749.812 123.156ZM749.633 115.578C749.049 115.578 748.56 115.792 748.164 116.219C747.768 116.641 747.523 117.234 747.43 118H751.664V117.891C751.622 117.156 751.424 116.589 751.07 116.188C750.716 115.781 750.237 115.578 749.633 115.578ZM756.148 114.547L756.188 115.484C756.807 114.755 757.643 114.391 758.695 114.391C759.878 114.391 760.682 114.844 761.109 115.75C761.391 115.344 761.755 115.016 762.203 114.766C762.656 114.516 763.19 114.391 763.805 114.391C765.659 114.391 766.602 115.372 766.633 117.336V123H765.188V117.422C765.188 116.818 765.049 116.367 764.773 116.07C764.497 115.768 764.034 115.617 763.383 115.617C762.846 115.617 762.401 115.779 762.047 116.102C761.693 116.419 761.487 116.849 761.43 117.391V123H759.977V117.461C759.977 116.232 759.375 115.617 758.172 115.617C757.224 115.617 756.576 116.021 756.227 116.828V123H754.781V114.547H756.148ZM768.438 118.695C768.438 117.867 768.599 117.122 768.922 116.461C769.25 115.799 769.703 115.289 770.281 114.93C770.865 114.57 771.529 114.391 772.273 114.391C773.424 114.391 774.354 114.789 775.062 115.586C775.776 116.383 776.133 117.443 776.133 118.766V118.867C776.133 119.69 775.974 120.43 775.656 121.086C775.344 121.737 774.893 122.245 774.305 122.609C773.721 122.974 773.049 123.156 772.289 123.156C771.143 123.156 770.214 122.758 769.5 121.961C768.792 121.164 768.438 120.109 768.438 118.797V118.695ZM769.891 118.867C769.891 119.805 770.107 120.557 770.539 121.125C770.977 121.693 771.56 121.977 772.289 121.977C773.023 121.977 773.607 121.69 774.039 121.117C774.471 120.539 774.688 119.732 774.688 118.695C774.688 117.768 774.466 117.018 774.023 116.445C773.586 115.867 773.003 115.578 772.273 115.578C771.56 115.578 770.984 115.862 770.547 116.43C770.109 116.997 769.891 117.81 769.891 118.867Z" fill="#F7F9FA"/>
<circle cx="609.118" cy="89.9412" r="2.94118" fill="#F7F9FA"/>
<ellipse cx="619.706" cy="101.706" rx="2.94117" ry="2.94117" fill="#F7F9FA"/>
<ellipse cx="630.294" cy="115.824" rx="2.94118" ry="2.94118" fill="#F7F9FA"/>
<ellipse cx="600.882" cy="105.235" rx="2.94118" ry="2.94117" fill="#F7F9FA"/>
<ellipse cx="587.941" cy="113.471" rx="2.94118" ry="2.94118" fill="#F7F9FA"/>
<ellipse cx="620.882" cy="144.059" rx="2.94118" ry="2.94118" fill="#F7F9FA"/>
<ellipse cx="602.059" cy="128.765" rx="2.94118" ry="2.94118" fill="#F7F9FA"/>
<ellipse cx="642.059" cy="125.235" rx="2.94118" ry="2.94118" fill="#F7F9FA"/>
<ellipse cx="635.588" cy="102.294" rx="4.70588" ry="4.70588" fill="#F7F9FA"/>
<ellipse cx="632.059" cy="132.882" rx="4.70588" ry="4.70588" fill="#F7F9FA"/>
<ellipse cx="605" cy="141.118" rx="4.70588" ry="4.70588" fill="#F7F9FA"/>
<ellipse cx="626.765" cy="98.1765" rx="1.7647" ry="1.76471" fill="#F7F9FA"/>
<ellipse cx="622.059" cy="89.9412" rx="1.76471" ry="1.76471" fill="#F7F9FA"/>
<ellipse cx="643.235" cy="113.471" rx="1.7647" ry="1.7647" fill="#F7F9FA"/>
<ellipse cx="635" cy="122.882" rx="1.76471" ry="1.76471" fill="#F7F9FA"/>
<circle cx="596.176" cy="118.176" r="1.7647" fill="#F7F9FA"/>
<ellipse cx="623.235" cy="133.471" rx="1.76471" ry="1.76471" fill="#F7F9FA"/>
<ellipse cx="611.47" cy="135.824" rx="1.7647" ry="1.76471" fill="#F7F9FA"/>
<ellipse cx="590.294" cy="129.941" rx="1.76471" ry="1.7647" fill="#F7F9FA"/>
<ellipse cx="597.353" cy="135.824" rx="1.76471" ry="1.76471" fill="#F7F9FA"/>
<ellipse cx="599.706" cy="94.647" rx="1.76471" ry="1.76471" fill="#F7F9FA"/>
<ellipse cx="615.588" cy="94.0588" rx="1.17647" ry="1.17647" fill="#F7F9FA"/>
<ellipse cx="615.588" cy="89.3529" rx="1.17647" ry="1.17647" fill="#F7F9FA"/>
<ellipse cx="606.177" cy="96.4118" rx="1.17647" ry="1.17647" fill="#F7F9FA"/>
<ellipse cx="621.471" cy="95.2353" rx="1.17647" ry="1.17647" fill="#F7F9FA"/>
<ellipse cx="595.588" cy="99.9412" rx="1.17647" ry="1.17647" fill="#F7F9FA"/>
<ellipse cx="605" cy="101.118" rx="1.17647" ry="1.17647" fill="#F7F9FA"/>
<ellipse cx="600.294" cy="99.9412" rx="1.17647" ry="1.17647" fill="#F7F9FA"/>
<ellipse cx="595.588" cy="105.824" rx="1.17647" ry="1.17647" fill="#F7F9FA"/>
<ellipse cx="589.706" cy="103.471" rx="1.17647" ry="1.17647" fill="#F7F9FA"/>
<ellipse cx="592.059" cy="109.353" rx="1.17647" ry="1.17647" fill="#F7F9FA"/>
<ellipse cx="594.412" cy="114.059" rx="1.17647" ry="1.17647" fill="#F7F9FA"/>
<ellipse cx="600.294" cy="112.882" rx="1.17647" ry="1.17647" fill="#F7F9FA"/>
<ellipse cx="587.353" cy="119.941" rx="1.17647" ry="1.17647" fill="#F7F9FA"/>
<ellipse cx="592.059" cy="122.294" rx="1.17647" ry="1.17647" fill="#F7F9FA"/>
<ellipse cx="599.118" cy="122.294" rx="1.17647" ry="1.17647" fill="#F7F9FA"/>
<ellipse cx="595.588" cy="128.176" rx="1.17647" ry="1.17647" fill="#F7F9FA"/>
<ellipse cx="593.235" cy="134.059" rx="1.17647" ry="1.17647" fill="#F7F9FA"/>
<ellipse cx="602.647" cy="134.059" rx="1.17647" ry="1.17647" fill="#F7F9FA"/>
<ellipse cx="607.353" cy="131.706" rx="1.17647" ry="1.17647" fill="#F7F9FA"/>
<ellipse cx="607.941" cy="134.647" rx="0.588236" ry="0.588234" fill="#F7F9FA"/>
<ellipse cx="597.353" cy="140.529" rx="0.588236" ry="0.588234" fill="#F7F9FA"/>
<circle cx="616.177" cy="146.412" r="0.588236" fill="#F7F9FA"/>
<ellipse cx="620.882" cy="135.824" rx="0.588238" ry="0.588236" fill="#F7F9FA"/>
<circle cx="626.765" cy="142.882" r="0.588236" fill="#F7F9FA"/>
<ellipse cx="627.941" cy="138.176" rx="0.588236" ry="0.588234" fill="#F7F9FA"/>
<circle cx="637.353" cy="137" r="0.588236" fill="#F7F9FA"/>
<circle cx="626.765" cy="127.588" r="0.588236" fill="#F7F9FA"/>
<circle cx="631.471" cy="126.412" r="0.588236" fill="#F7F9FA"/>
<ellipse cx="636.177" cy="127.588" rx="0.588234" ry="0.588236" fill="#F7F9FA"/>
<circle cx="631.471" cy="120.529" r="0.588236" fill="#F7F9FA"/>
<ellipse cx="638.529" cy="121.706" rx="0.588234" ry="0.588236" fill="#F7F9FA"/>
<ellipse cx="638.529" cy="113.471" rx="0.588234" ry="0.588235" fill="#F7F9FA"/>
<ellipse cx="629.118" cy="111.118" rx="0.588236" ry="0.588235" fill="#F7F9FA"/>
<circle cx="642.059" cy="105.235" r="0.588236" fill="#F7F9FA"/>
<circle cx="597.353" cy="131.118" r="0.588236" fill="#F7F9FA"/>
<ellipse cx="596.176" cy="124.059" rx="0.588235" ry="0.588238" fill="#F7F9FA"/>
<ellipse cx="587.941" cy="125.235" rx="0.588235" ry="0.588236" fill="#F7F9FA"/>
<ellipse cx="600.882" cy="118.176" rx="0.588238" ry="0.588233" fill="#F7F9FA"/>
<ellipse cx="591.471" cy="118.176" rx="0.588235" ry="0.588233" fill="#F7F9FA"/>
<ellipse cx="596.176" cy="109.941" rx="0.588235" ry="0.588237" fill="#F7F9FA"/>
<ellipse cx="587.941" cy="107.588" rx="0.588235" ry="0.588234" fill="#F7F9FA"/>
<ellipse cx="592.647" cy="104.059" rx="0.588236" ry="0.588237" fill="#F7F9FA"/>
<ellipse cx="592.647" cy="98.1765" rx="0.588236" ry="0.588235" fill="#F7F9FA"/>
<ellipse cx="603.235" cy="97" rx="0.588238" ry="0.588235" fill="#F7F9FA"/>
<ellipse cx="613.823" cy="101.706" rx="0.588235" ry="0.588237" fill="#F7F9FA"/>
<ellipse cx="609.118" cy="101.706" rx="0.588236" ry="0.588237" fill="#F7F9FA"/>
<ellipse cx="611.471" cy="94.6471" rx="0.588234" ry="0.588235" fill="#F7F9FA"/>
<ellipse cx="617.353" cy="97" rx="0.588228" ry="0.588235" fill="#F7F9FA"/>
<ellipse cx="618.529" cy="92.2941" rx="0.588236" ry="0.588235" fill="#F7F9FA"/>
<ellipse cx="627.941" cy="91.1177" rx="0.588236" ry="0.588235" fill="#F7F9FA"/>
<ellipse cx="635" cy="95.8235" rx="0.588238" ry="0.588236" fill="#F7F9FA"/>
<ellipse cx="625.588" cy="93.4706" rx="0.588234" ry="0.588235" fill="#F7F9FA"/>
<ellipse cx="625.588" cy="106.412" rx="0.588234" ry="0.588236" fill="#F7F9FA"/>
<ellipse cx="626.765" cy="101.706" rx="0.588236" ry="0.588237" fill="#F7F9FA"/>
<circle cx="612.059" cy="144.647" r="1.17647" fill="#F7F9FA"/>
<ellipse cx="614.412" cy="141.118" rx="1.17647" ry="1.17647" fill="#F7F9FA"/>
<ellipse cx="617.941" cy="138.765" rx="1.17647" ry="1.17647" fill="#F7F9FA"/>
<ellipse cx="617.941" cy="134.059" rx="1.17647" ry="1.17647" fill="#F7F9FA"/>
<ellipse cx="623.824" cy="138.765" rx="1.17647" ry="1.17647" fill="#F7F9FA"/>
<ellipse cx="602.647" cy="90.5294" rx="1.17647" ry="1.17647" fill="#F7F9FA"/>
<ellipse cx="630.882" cy="141.118" rx="1.17647" ry="1.17647" fill="#F7F9FA"/>
<circle cx="628.529" cy="123.471" r="1.17647" fill="#F7F9FA"/>
<ellipse cx="630.882" cy="94.0588" rx="1.17647" ry="1.17647" fill="#F7F9FA"/>
<circle cx="612.059" cy="97.5882" r="1.17647" fill="#F7F9FA"/>
<circle cx="634.412" cy="111.706" r="1.17647" fill="#F7F9FA"/>
<ellipse cx="629.706" cy="107" rx="1.17647" ry="1.17647" fill="#F7F9FA"/>
<ellipse cx="640.294" cy="108.176" rx="1.17647" ry="1.17647" fill="#F7F9FA"/>
<circle cx="636.765" cy="117.588" r="1.17647" fill="#F7F9FA"/>
<ellipse cx="641.471" cy="118.765" rx="1.17647" ry="1.17647" fill="#F7F9FA"/>
<circle cx="639.118" cy="130.529" r="1.17647" fill="#F7F9FA"/>
<defs>
<filter id="filter0_d" x="238" y="67" width="1452" height="954" filterUnits="userSpaceOnUse" color-interpolation-filters="sRGB">
<feFlood flood-opacity="0" result="BackgroundImageFix"/>
<feColorMatrix in="SourceAlpha" type="matrix" values="0 0 0 0 0 0 0 0 0 0 0 0 0 0 0 0 0 0 127 0"/>
<feOffset dy="4"/>
<feGaussianBlur stdDeviation="2"/>
<feColorMatrix type="matrix" values="0 0 0 0 0 0 0 0 0 0 0 0 0 0 0 0 0 0 0.25 0"/>
<feBlend mode="normal" in2="BackgroundImageFix" result="effect1_dropShadow"/>
<feBlend mode="normal" in="SourceGraphic" in2="effect1_dropShadow" result="shape"/>
</filter>
<filter id="filter1_d" x="545" y="47" width="841" height="986" filterUnits="userSpaceOnUse" color-interpolation-filters="sRGB">
<feFlood flood-opacity="0" result="BackgroundImageFix"/>
<feColorMatrix in="SourceAlpha" type="matrix" values="0 0 0 0 0 0 0 0 0 0 0 0 0 0 0 0 0 0 127 0"/>
<feOffset/>
<feGaussianBlur stdDeviation="10"/>
<feColorMatrix type="matrix" values="0 0 0 0 0 0 0 0 0 0 0 0 0 0 0 0 0 0 0.25 0"/>
<feBlend mode="normal" in2="BackgroundImageFix" result="effect1_dropShadow"/>
<feBlend mode="normal" in="SourceGraphic" in2="effect1_dropShadow" result="shape"/>
</filter>
<filter id="filter2_d" x="545" y="47" width="841" height="140" filterUnits="userSpaceOnUse" color-interpolation-filters="sRGB">
<feFlood flood-opacity="0" result="BackgroundImageFix"/>
<feColorMatrix in="SourceAlpha" type="matrix" values="0 0 0 0 0 0 0 0 0 0 0 0 0 0 0 0 0 0 127 0"/>
<feOffset/>
<feGaussianBlur stdDeviation="10"/>
<feColorMatrix type="matrix" values="0 0 0 0 0 0 0 0 0 0 0 0 0 0 0 0 0 0 0.25 0"/>
<feBlend mode="normal" in2="BackgroundImageFix" result="effect1_dropShadow"/>
<feBlend mode="normal" in="SourceGraphic" in2="effect1_dropShadow" result="shape"/>
</filter>
</defs>
</svg>
